<?xml version="1.0" encoding="UTF-8"?><svg id="Layer_1" xmlns="http://www.w3.org/2000/svg" viewBox="0 0 458.86 389.05"><defs><style>.cls-1{fill:#fbbd03;}</style></defs><path class="cls-1" d="m448.44,194.53c2.62-3.05,4.85-6.52,6.56-10.31,7.04-15.49,4.3-33.78-6.92-46.56L340.14,14.79c-4.21-4.79-9.33-8.51-15-11.04-5.52-2.44-11.49-3.75-17.65-3.75-12.47,0-24.39,5.4-32.62,14.79l-65.74,74.82-61.1,69.55-10.79,12.26-6.89,7.87H43.44c-11.16,0-17.11-13.14-9.76-21.5l107.93-122.87c2.59-2.96,6.16-4.42,9.76-4.42s7.13,1.46,9.73,4.42l23.97,27.29,11.89,13.54,20.31-23.11-33.27-37.84c-8.23-9.39-20.15-14.79-32.62-14.79s-24.39,5.4-32.65,14.79L10.79,137.66c-11.22,12.78-13.96,31.07-6.92,46.56,1.71,3.78,3.93,7.26,6.56,10.31-2.62,3.05-4.85,6.53-6.56,10.31-7.04,15.49-4.3,33.78,6.92,46.56l107.93,122.87c4.21,4.79,9.36,8.54,15.03,11.04,5.49,2.47,11.49,3.75,17.62,3.75,12.47,0,24.39-5.4,32.62-14.79l65.74-74.82,61.1-69.55,10.76-12.26,6.92-7.87h86.9c11.16,0,17.1,13.14,9.76,21.5l-107.93,122.88c-2.59,2.96-6.16,4.42-9.76,4.42s-7.13-1.46-9.73-4.42l-35.86-40.83-20.31,23.11,33.26,37.84c8.23,9.39,20.15,14.79,32.62,14.79s24.39-5.4,32.66-14.79l107.93-122.87c11.22-12.78,13.96-31.07,6.92-46.56-1.71-3.78-3.93-7.26-6.56-10.31Zm-119.92-15.25l-6.92-7.87-9.15-10.43-1.62-1.83-48.94-55.71-20.31,23.11,46.31,52.72,13.39,15.25-13.39,15.24-58.48,66.56-68.33,77.81c-2.59,2.96-6.16,4.42-9.73,4.42s-7.17-1.46-9.76-4.42l-107.93-122.88c-7.35-8.35-1.4-21.5,9.76-21.5h86.9l6.92,7.87,9.15,10.43,1.62,1.83,48.94,55.71,20.31-23.11-46.31-52.72-13.39-15.21,13.39-15.28,1.11-1.26-1.11,1.26,54.7-62.26,3.78-4.3v-.02l68.33-77.79-34.16,38.89,34.16-38.89h0s.18-.18.18-.18c2.56-2.84,6.07-4.24,9.54-4.24s7.17,1.46,9.76,4.42l107.93,122.87c7.35,8.35,1.4,21.5-9.76,21.5h-86.9Z"/></svg>